# xmcd
#
# Track frame offsets:
#	150
#	10305
#	21676
#	42649
#	52902
#	65916
#	76722
#	89357
#	103900
#	115421
#	126746
#	137087
#	149797
#	162633
#
# Disc length: 2374 seconds
# Revision: 0
# Processed by: cddbd v1.5.2PL0 Copyright (c) Steve Scherf et al.
# Submitted via: dBpowerAMP V12.0
#
DISCID=de09440e
DTITLE=Ralph Stanley and Ralph Stanley II - Side by Side
DYEAR=2014
DGENRE=Country
TTITLE0=Wild Bill Jones
TTITLE1=Carolina Mountain Home
TTITLE2=Dirty Black Coal
TTITLE3=Walking With You In My Dreams
TTITLE4=Don't Step Over an Old Love
TTITLE5=Battle Ax
TTITLE6=Are You Waiting Just For Me
TTITLE7=White and Pink Flowers
TTITLE8=A Little At a Time
TTITLE9=Darling Little Joe
TTITLE10=Don't Weep For Me
TTITLE11=Six Months Ain't Long
TTITLE12=Nobody Answered Me
TTITLE13=I've Still Got 99
EXTD=
EXTT0=
EXTT1=
EXTT2=
EXTT3=
EXTT4=
EXTT5=
EXTT6=
EXTT7=
EXTT8=
EXTT9=
EXTT10=
EXTT11=
EXTT12=
EXTT13=
PLAYORDER=
